<svg width="15" height="15" viewBox="0 0 15 15" fill="none" xmlns="http://www.w3.org/2000/svg">
<path d="M13.9464 6.83189C15.0171 6.022 14.4444 4.31533 13.1018 4.31533H10.6727C10.0587 4.31533 9.51645 3.91536 9.33512 3.32884L8.61098 0.98653C8.20433 -0.328787 6.34254 -0.328787 5.9359 0.98653L5.21175 3.32884C5.03042 3.91536 4.48813 4.31533 3.87421 4.31533H1.40305C0.0648563 4.31533 -0.510644 6.01289 0.551656 6.82669L2.66813 8.44808C3.13229 8.80365 3.32658 9.41024 3.1554 9.96932L2.3864 12.4809C1.9876 13.7834 3.49511 14.8305 4.57645 14.0021L6.42205 12.5882C6.92441 12.2034 7.62247 12.2034 8.12483 12.5882L9.95413 13.9896C11.037 14.8192 12.546 13.768 12.1431 12.4648L11.3634 9.94286C11.1894 9.37991 11.3864 8.76824 11.8564 8.41278L13.9464 6.83189Z" fill="#FFAD33"/>
</svg>
