<svg width="40" height="40" viewBox="0 0 40 40" fill="none" xmlns="http://www.w3.org/2000/svg">
<path d="M20.4277 29.7729H20.9277C21.5521 29.7729 22.1512 29.5249 22.5928 29.0835C23.0343 28.642 23.2821 28.0428 23.2822 27.4185C23.2822 26.7941 23.0343 26.195 22.5928 25.7534C22.1512 25.3119 21.5522 25.064 20.9277 25.064H20.4277V29.7729ZM19.0732 19.5005C18.4488 19.5005 17.8497 19.7484 17.4082 20.1899C16.9668 20.6315 16.7188 21.2306 16.7188 21.855C16.7189 22.4791 16.9669 23.0776 17.4082 23.519C17.8497 23.9606 18.4488 24.2095 19.0732 24.2095H19.5732V19.5005H19.0732ZM19.5732 25.064H19.0732C18.2222 25.0639 17.4055 24.7253 16.8037 24.1235C16.2022 23.5218 15.8644 22.7058 15.8643 21.855C15.8643 21.004 16.202 20.1872 16.8037 19.5854C17.4055 18.9837 18.2222 18.646 19.0732 18.646H19.5732V17.7183H20.4277V18.646H20.9277C21.5915 18.646 22.2393 18.8517 22.7812 19.2349C23.2552 19.5701 23.6282 20.0264 23.8623 20.5542L23.9541 20.7856C23.9726 20.8383 23.9805 20.894 23.9775 20.9497C23.9746 21.0057 23.9607 21.0612 23.9365 21.1118C23.9123 21.1624 23.8786 21.2081 23.8369 21.2456C23.7952 21.2831 23.7462 21.3119 23.6934 21.3306C23.6405 21.3492 23.5843 21.357 23.5283 21.354C23.4724 21.351 23.4177 21.3371 23.3672 21.313C23.265 21.2642 23.1862 21.1766 23.1484 21.0698C22.9861 20.6108 22.6847 20.2132 22.2871 19.9321C21.8895 19.6511 21.4147 19.5004 20.9277 19.5005H20.4277V24.2095H20.9277C21.7788 24.2095 22.5955 24.5471 23.1973 25.1489C23.799 25.7507 24.1367 26.5674 24.1367 27.4185C24.1366 28.2693 23.7988 29.0853 23.1973 29.687C22.5955 30.2888 21.7788 30.6274 20.9277 30.6274H20.4277V31.5542H19.5732V30.6274H19.0732C18.4095 30.6274 17.7617 30.4218 17.2197 30.0386C16.6779 29.6554 16.2682 29.1134 16.0469 28.4878L16.042 28.4741C16.0215 28.4209 16.0119 28.3641 16.0137 28.3071C16.0155 28.2501 16.0289 28.1939 16.0527 28.1421C16.0766 28.0902 16.1111 28.0439 16.1533 28.0054C16.1955 27.9669 16.245 27.9365 16.2988 27.9175C16.3526 27.8985 16.4099 27.8906 16.4668 27.894C16.5237 27.8975 16.5797 27.9127 16.6309 27.938C16.6819 27.9633 16.7275 27.9984 16.7646 28.0415C16.8019 28.0848 16.8302 28.1356 16.8477 28.1899L16.8496 28.1968L16.8525 28.2036C17.177 29.1183 18.0483 29.7729 19.0732 29.7729H19.5732V25.064Z" fill="#FAFAFA" stroke="#FAFAFA"/>
<path d="M20.0361 3.80933C23.9382 3.80933 27.4978 5.04265 29.7168 6.11987L29.8447 6.18237C30.284 6.39975 30.6638 6.60835 30.9766 6.79468L27.8457 11.3728L27.6143 11.7107L27.9014 12.0046C29.8396 13.9862 31.6698 16.5167 32.9805 19.1921C34.2934 21.8723 35.0683 24.6626 34.9414 27.1736C34.8155 29.6637 33.8056 31.8865 31.5166 33.5037C29.2054 35.1365 25.538 36.1882 20.0361 36.1882C14.5332 36.1882 10.8546 35.1546 8.52832 33.5437C6.22488 31.9486 5.19876 29.7544 5.05762 27.2859C4.9153 24.7954 5.67566 22.0152 6.9834 19.3201C8.28876 16.6299 10.1227 14.0593 12.0811 11.9988L12.3594 11.7068L12.1328 11.3738L9.02246 6.79663C9.17967 6.70404 9.35379 6.60737 9.54297 6.50659L9.54492 6.50562C9.7354 6.40319 9.94076 6.29767 10.1611 6.19019L10.2197 6.16187C12.4563 5.0758 16.0841 3.80937 20.0361 3.80933ZM26.957 12.698C22.6083 14.3797 17.3703 14.3799 13.0215 12.7L12.8418 13.1658L12.4756 12.8259C10.6577 14.7853 8.96568 17.19 7.75098 19.6931C6.55983 22.1489 5.86865 24.6146 5.89551 26.8035L5.91016 27.2371C6.0376 29.4716 6.94935 31.4115 9.0127 32.8416C11.1392 34.3135 14.6197 35.3337 20.0352 35.3337C25.4465 35.3337 28.9126 34.2955 31.0215 32.8054C33.0713 31.3567 33.9725 29.3907 34.0869 27.1296C34.2038 24.813 33.4877 22.1696 32.2119 19.5671L32.2109 19.5652L31.9766 19.1042C30.7861 16.8112 29.2793 14.6957 27.5 12.8201L27.2695 12.5769L26.957 12.698ZM28.7627 7.08081C26.4933 7.24424 23.8596 7.72964 21.2637 8.41968L20.1553 8.72729C18.2952 9.26464 16.2165 9.22692 14.2295 8.90015L13.834 8.83081C13.3047 8.73268 12.7788 8.61648 12.2578 8.4812L10.9727 8.14722L11.7188 9.24585L13.499 11.8669L13.5908 12.0027L13.7451 12.0574C17.6692 13.4544 22.2998 13.4544 26.2246 12.0593L26.0566 11.5876L26.4697 11.8699L29.2119 7.86206L29.7969 7.00659L28.7627 7.08081ZM20.0352 4.66382C16.7535 4.66387 13.7063 5.57777 11.5801 6.48022L11.7754 6.94019L11.6328 7.41968C12.3895 7.6448 13.1819 7.84086 13.9873 7.98999H13.9883C16.0232 8.36478 18.1082 8.42997 19.917 7.90601L19.918 7.90503C21.8862 7.33167 23.8882 6.88135 25.9121 6.55542L25.9766 5.58276C24.2351 5.05846 22.1902 4.66382 20.0352 4.66382Z" fill="#FAFAFA" stroke="#FAFAFA"/>
</svg>
