<svg width="50" height="50" viewBox="0 0 50 50" fill="none" xmlns="http://www.w3.org/2000/svg">
<path d="M29.5455 28.125V32.2917C29.5455 32.8667 30.0545 33.3333 30.6818 33.3333C31.3091 33.3333 31.8182 32.8667 31.8182 32.2917V28.125C31.8182 27.55 31.3091 27.0833 30.6818 27.0833C30.0545 27.0833 29.5455 27.55 29.5455 28.125ZM39.7727 8.33333H32.9545C32.3273 8.33333 31.8182 8.8 31.8182 9.375C31.8182 9.95 32.3273 10.4167 32.9545 10.4167H39.7727C40.4 10.4167 40.9091 9.95 40.9091 9.375C40.9091 8.8 40.4 8.33333 39.7727 8.33333ZM43.5227 2.8875C39.9818 1.025 35.4205 0 30.6818 0C26.2068 0 21.85 0.920833 18.4136 2.59583C16.3023 3.62292 13.925 4.16667 11.5341 4.16667H3.40909C1.52955 4.16667 0 5.56875 0 7.29167V15.625C0 17.3479 1.52955 18.75 3.40909 18.75H11.5341C13.9227 18.75 16.3023 19.2937 18.4114 20.3208C20.3091 21.2458 22.5023 21.9146 24.8273 22.3521C25.8273 30.0229 26.175 38.8062 25.1068 39.8875C24.7818 40.1854 24.6841 40.6333 24.8614 41.0229C25.0364 41.4125 25.4523 41.6667 25.9114 41.6667H29.2932C29.1295 44.8542 27.9818 47.9146 21.3659 47.9146C16.7705 47.9146 13.2727 46.7687 12.0068 44.85C11.1636 43.5708 11.2841 41.9625 12.3705 40.0667L12.8773 39.2104C14.5523 36.4229 17.6682 31.2375 15.1568 27.3417C13.2364 24.3625 8.65227 22.9146 1.13636 22.9146C0.509091 22.9146 0 23.3812 0 23.9562C0 24.5312 0.509091 24.9979 1.13636 24.9979C7.68636 24.9979 11.7432 26.1417 13.2 28.4C15.0523 31.2729 12.3432 35.7812 10.8864 38.2042L10.3568 39.0979C8.51364 42.3187 9.17727 44.5896 10.0614 45.9292C11.7932 48.5542 15.8068 50 21.3659 50C30.4159 50 31.4568 44.6729 31.575 41.6667H32.7295C32.9864 41.6667 33.2364 41.5875 33.4364 41.4417C35.9023 39.6521 36.1295 32.4354 36.1386 22.4062C38.8409 21.9333 41.3818 21.1562 43.5227 20.0292C47.6386 17.8667 50 14.7417 50 11.4583C50 8.175 47.6409 5.05208 43.5227 2.8875ZM13.6364 16.7896C12.9386 16.7104 12.2386 16.6667 11.5341 16.6667H3.40909C2.78182 16.6667 2.27273 16.2 2.27273 15.625V7.29167C2.27273 6.71667 2.78182 6.25 3.40909 6.25H11.5364C12.2386 6.25 12.9409 6.20625 13.6364 6.12708V16.7896ZM32.2523 39.5833H30.4682C30.4636 39.5833 30.4614 39.5812 30.4568 39.5812C30.4523 39.5812 30.45 39.5833 30.4455 39.5833H27.5909C28.5841 35.6875 27.75 27.3479 27.1636 22.7167C28.3205 22.8417 29.4955 22.9167 30.6818 22.9167C31.7568 22.9167 32.8182 22.8479 33.8659 22.7458C33.8614 28.4208 33.7864 37.65 32.2523 39.5833ZM42.3955 18.2229C39.1909 19.9062 35.0341 20.8333 30.6841 20.8333C26.5727 20.8333 22.5955 19.9979 19.4795 18.4813C18.3477 17.9292 17.1455 17.5125 15.9091 17.2104V5.70833C17.1455 5.40417 18.3477 4.9875 19.4818 4.43542C22.5955 2.91875 26.5727 2.08333 30.6841 2.08333C35.0341 2.08333 39.1909 3.01042 42.3955 4.69375C45.7864 6.47708 47.7295 8.94167 47.7295 11.4583C47.7295 13.975 45.7864 16.4396 42.3955 18.2229ZM39.7727 12.5H32.9545C32.3273 12.5 31.8182 12.9667 31.8182 13.5417C31.8182 14.1167 32.3273 14.5833 32.9545 14.5833H39.7727C40.4 14.5833 40.9091 14.1167 40.9091 13.5417C40.9091 12.9667 40.4 12.5 39.7727 12.5Z" fill="black"/>
</svg>
