<svg width="50" height="50" viewBox="0 0 50 50" fill="none" xmlns="http://www.w3.org/2000/svg">
<path d="M22.619 8.33333C23.2762 8.33333 23.8095 7.86667 23.8095 7.29167V6.25H26.4167C27.4619 8.68542 32.1286 10.4167 38.0952 10.4167C44.8833 10.4167 50 8.17708 50 5.20833C50 2.23958 44.8833 0 38.0952 0C32.1286 0 27.4595 1.73125 26.4167 4.16667H23.8095V1.04167C23.8095 0.466667 23.2762 0 22.619 0H17.8571C17.2 0 16.6667 0.466667 16.6667 1.04167V7.29167C16.6667 7.86667 17.2 8.33333 17.8571 8.33333H19.0476V10.4167H17.8571C15.8881 10.4167 14.2857 11.8187 14.2857 13.5417V15.3667C6.02143 17.5958 0 24.3396 0 32.2917C0 42.0562 9.07857 50 20.2381 50C31.3976 50 40.4762 42.0562 40.4762 32.2917C40.4762 24.3396 34.4548 17.5958 26.1905 15.3667V13.5417C26.1905 11.8187 24.5881 10.4167 22.619 10.4167H21.4286V8.33333H22.619ZM38.0952 2.08333C43.9095 2.08333 47.619 3.93333 47.619 5.20833C47.619 6.48333 43.9095 8.33333 38.0952 8.33333C32.281 8.33333 28.5714 6.48333 28.5714 5.20833C28.5714 3.93333 32.281 2.08333 38.0952 2.08333ZM38.0952 32.2917C38.0952 40.9083 30.0857 47.9167 20.2381 47.9167C10.3905 47.9167 2.38095 40.9083 2.38095 32.2917C2.38095 23.675 10.3905 16.6667 20.2381 16.6667C30.0857 16.6667 38.0952 23.675 38.0952 32.2917ZM22.619 12.5C23.2762 12.5 23.8095 12.9667 23.8095 13.5417V14.8771C22.6476 14.6937 21.4595 14.5833 20.2381 14.5833C19.0167 14.5833 17.8286 14.6937 16.6667 14.8771V13.5417C16.6667 12.9667 17.2 12.5 17.8571 12.5H22.619ZM19.0476 6.25V2.08333H21.4286V6.25H19.0476ZM7.14286 32.2917C7.14286 31.7167 6.60952 31.25 5.95238 31.25C5.29524 31.25 4.7619 31.7167 4.7619 32.2917C4.7619 39.7583 11.7048 45.8333 20.2381 45.8333C20.8952 45.8333 21.4286 45.3667 21.4286 44.7917C21.4286 44.2167 20.8952 43.75 20.2381 43.75C13.0167 43.75 7.14286 38.6104 7.14286 32.2917Z" fill="black"/>
</svg>
