<svg width="50" height="30" viewBox="0 0 50 30" fill="none" xmlns="http://www.w3.org/2000/svg">
<path d="M7.50833 11.8775C9.18542 15.345 12.2937 17.5 15.625 17.5C16.2 17.5 16.6688 16.94 16.6688 16.25C16.6688 15.56 16.2021 15 15.6271 15C13.0375 15 10.6167 13.3225 9.3125 10.6225C9.02292 10.025 8.3875 9.82 7.8875 10.1675C7.38958 10.515 7.21875 11.28 7.50833 11.8775ZM47.9167 0H2.08333C0.935417 0 0 1.1225 0 2.5V5C0 6.3775 0.935417 7.5 2.08333 7.5H2.13542C2.48333 12.935 5.06458 17.6225 8.78333 20.25C8.51875 20.475 8.33333 20.83 8.33333 21.25C8.33333 21.94 8.8 22.5 9.375 22.5H11.0271L6.55417 27.8675C6.14792 28.355 6.14792 29.1475 6.55417 29.635C6.75833 29.8775 7.025 30 7.29167 30C7.55833 30 7.825 29.8775 8.02708 29.635L13.9729 22.5H36.025L41.9708 29.635C42.175 29.8775 42.4417 30 42.7083 30C42.975 30 43.2417 29.8775 43.4437 29.635C43.85 29.1475 43.85 28.355 43.4437 27.8675L38.9708 22.5H40.625C41.2 22.5 41.6667 21.94 41.6667 21.25C41.6667 20.83 41.4813 20.475 41.2167 20.25C44.9354 17.6225 47.5167 12.9375 47.8646 7.5H47.9167C49.0646 7.5 50 6.3775 50 5V2.5C50 1.1225 49.0646 0 47.9167 0ZM34.375 20H15.625C9.65625 20 4.73958 14.4975 4.2125 7.5H45.7875C45.2583 14.4975 40.3417 20 34.375 20ZM47.9167 5H2.08333V2.5H47.9167V5Z" fill="black"/>
</svg>
