<svg width="30" height="60" viewBox="0 0 30 60" fill="none" xmlns="http://www.w3.org/2000/svg">
<path d="M25.9091 24.9999H16.3636V22.3349C18.5536 21.8599 20.5609 20.3049 21.5073 18.2099C22.56 15.8799 22.02 13.4149 20.0564 11.6149C15.7664 7.6824 16.3527 1.42989 16.3582 1.36739C16.4264 0.692387 15.8973 0.0898856 15.1636 0.00988544C14.4491 -0.0751147 13.7618 0.397386 13.6527 1.06739C13.6418 1.12989 12.6273 7.3024 9.73091 11.8724C7.98545 14.6274 7.76182 17.4474 9.12 19.6099C10.0609 21.1074 11.6782 22.0474 13.6364 22.3574V24.9999H4.09091C1.83545 24.9999 0 26.6824 0 28.7499V28.7749C0 28.7849 0 28.7924 0 28.8024V56.25C0 58.3175 1.83545 60 4.09091 60H25.9091C28.1645 60 30 58.3175 30 56.25V28.7499C30 26.6824 28.1645 24.9999 25.9091 24.9999ZM11.4818 18.3624C10.6364 17.0174 10.8627 15.0599 12.0873 13.1274C13.1345 11.4749 13.95 9.6674 14.5745 7.9749C15.2373 9.8099 16.3309 11.7374 18.1282 13.3849C19.7318 14.8574 19.3555 16.4424 18.9873 17.2549C18.2809 18.8199 16.5655 19.9999 15 19.9999C13.3936 19.9999 12.1445 19.4174 11.4818 18.3624ZM27.2727 56.25C27.2727 56.94 26.6618 57.5 25.9091 57.5H4.09091C3.33818 57.5 2.72727 56.94 2.72727 56.25V31.5499C2.90455 31.8024 3.07636 32.0649 3.24545 32.3249C4.05818 33.5799 4.97727 35 6.81818 35C8.63455 35 9.61364 33.8825 10.2655 33.1399C10.35 33.0424 10.4618 32.9149 10.5709 32.7999C10.7645 33.3224 10.9691 34.0949 11.1218 34.6674C11.7845 37.1675 12.54 40 15 40C17.2145 40 18.1609 37.645 19.0773 35.365C19.4727 34.375 20.1382 32.7174 20.4545 32.4999C21.4745 32.4999 22.6309 33.2949 23.5609 33.935C24.4255 34.53 25.1073 35 25.9091 35C26.4436 35 26.88 34.7875 27.2727 34.4874V56.25ZM27.2727 30.5874C26.9455 30.8849 26.6482 31.2549 26.3509 31.6449C26.1982 31.8424 25.98 32.1274 25.7945 32.3349C25.6064 32.2149 25.3855 32.0624 25.2 31.9349C24.0136 31.1199 22.3882 29.9999 20.4573 29.9999C18.3273 29.9999 17.4082 32.2874 16.5191 34.5024C16.1264 35.475 15.4009 37.285 15.1227 37.5275C14.6073 37.22 14.0427 35.095 13.77 34.075C13.1891 31.8874 12.6873 29.9999 10.9091 29.9999C9.52091 29.9999 8.72182 30.9099 8.13545 31.5724C7.55727 32.2324 7.27636 32.4999 6.81545 32.4999C6.52909 32.4999 5.96455 31.6274 5.59091 31.0499C4.95818 30.0699 4.17818 28.9174 2.93182 28.1324C3.16909 27.7599 3.58909 27.4999 4.09091 27.4999H25.9091C26.6618 27.4999 27.2727 28.0599 27.2727 28.7499V30.5874Z" fill="black"/>
</svg>
